{
	"patcher" : 	{
		"fileversion" : 1,
		"appversion" : 		{
			"major" : 9,
			"minor" : 0,
			"revision" : 7,
			"architecture" : "x64",
			"modernui" : 1
		}
,
		"classnamespace" : "box",
		"rect" : [ 987.0, 87.0, 1919.0, 1319.0 ],
		"gridonopen" : 2,
		"gridsize" : [ 10.0, 10.0 ],
		"gridsnaponopen" : 2,
		"objectsnaponopen" : 0,
		"description" : "Reason Rack",
		"digest" : "Encapsulates Reason Rack VST Plugin",
		"style" : "rnbodefault",
		"subpatcher_template" : "zapperment",
		"boxes" : [ 			{
				"box" : 				{
					"id" : "obj-14",
					"maxclass" : "message",
					"numinlets" : 2,
					"numoutlets" : 1,
					"outlettype" : [ "" ],
					"patching_rect" : [ 210.0, 190.0, 32.0, 23.0 ],
					"style" : "rnbodefault",
					"text" : "stop"
				}

			}
, 			{
				"box" : 				{
					"id" : "obj-5",
					"maxclass" : "newobj",
					"numinlets" : 1,
					"numoutlets" : 2,
					"outlettype" : [ "bang", "bang" ],
					"patching_rect" : [ 160.0, 140.0, 60.0, 23.0 ],
					"text" : "bangbang"
				}

			}
, 			{
				"box" : 				{
					"color" : [ 0.501961052417755, 0.250952810049057, 0.010027698241174, 1.0 ],
					"id" : "obj-28",
					"maxclass" : "newobj",
					"numinlets" : 0,
					"numoutlets" : 1,
					"outlettype" : [ "" ],
					"patching_rect" : [ 160.0, 90.0, 122.0, 23.0 ],
					"text" : "receive appShutdown"
				}

			}
, 			{
				"box" : 				{
					"color" : [ 0.501966595649719, 0.001555800437927, 0.9985111951828, 1.0 ],
					"id" : "obj-19",
					"maxclass" : "newobj",
					"numinlets" : 0,
					"numoutlets" : 1,
					"outlettype" : [ "" ],
					"patching_rect" : [ 30.0, 90.0, 101.0, 23.0 ],
					"text" : "receive appReady"
				}

			}
, 			{
				"box" : 				{
					"id" : "obj-18",
					"maxclass" : "message",
					"numinlets" : 2,
					"numoutlets" : 1,
					"outlettype" : [ "" ],
					"patching_rect" : [ 150.0, 190.0, 32.0, 23.0 ],
					"style" : "rnbodefault",
					"text" : "save"
				}

			}
, 			{
				"box" : 				{
					"id" : "obj-15",
					"maxclass" : "message",
					"numinlets" : 2,
					"numoutlets" : 1,
					"outlettype" : [ "" ],
					"patching_rect" : [ 20.0, 190.0, 51.0, 23.0 ],
					"style" : "rnbodefault",
					"text" : "initialise"
				}

			}
, 			{
				"box" : 				{
					"id" : "obj-13",
					"maxclass" : "newobj",
					"numinlets" : 1,
					"numoutlets" : 2,
					"outlettype" : [ "bang", "bang" ],
					"patching_rect" : [ 30.0, 140.0, 60.0, 23.0 ],
					"text" : "bangbang"
				}

			}
, 			{
				"box" : 				{
					"id" : "obj-6",
					"maxclass" : "message",
					"numinlets" : 2,
					"numoutlets" : 1,
					"outlettype" : [ "" ],
					"patching_rect" : [ 80.000001788139343, 190.0, 31.0, 23.0 ],
					"style" : "rnbodefault",
					"text" : "load"
				}

			}
, 			{
				"box" : 				{
					"id" : "obj-3",
					"maxclass" : "newobj",
					"numinlets" : 1,
					"numoutlets" : 2,
					"outlettype" : [ "signal", "signal" ],
					"patching_rect" : [ 210.0, 330.0, 94.0, 23.0 ],
					"text" : "vstController #1"
				}

			}
, 			{
				"box" : 				{
					"id" : "obj-11",
					"maxclass" : "message",
					"numinlets" : 2,
					"numoutlets" : 1,
					"outlettype" : [ "" ],
					"patching_rect" : [ 440.000008344650269, 190.000002980232239, 35.0, 23.0 ],
					"style" : "rnbodefault",
					"text" : "close"
				}

			}
, 			{
				"box" : 				{
					"id" : "obj-10",
					"maxclass" : "newobj",
					"numinlets" : 3,
					"numoutlets" : 3,
					"outlettype" : [ "", "", "" ],
					"patching_rect" : [ 410.000007450580597, 90.0, 57.0, 23.0 ],
					"text" : "route 1 0"
				}

			}
, 			{
				"box" : 				{
					"id" : "obj-9",
					"maxclass" : "message",
					"numinlets" : 2,
					"numoutlets" : 1,
					"outlettype" : [ "" ],
					"patching_rect" : [ 400.000007152557373, 190.000002980232239, 35.0, 23.0 ],
					"style" : "rnbodefault",
					"text" : "open"
				}

			}
, 			{
				"box" : 				{
					"comment" : "",
					"id" : "obj-2",
					"index" : 2,
					"maxclass" : "inlet",
					"numinlets" : 0,
					"numoutlets" : 1,
					"outlettype" : [ "int" ],
					"patching_rect" : [ 410.000007450580597, 39.999998509883881, 30.0, 30.0 ]
				}

			}
, 			{
				"box" : 				{
					"id" : "obj-4",
					"maxclass" : "newobj",
					"numinlets" : 3,
					"numoutlets" : 3,
					"outlettype" : [ "", "", "" ],
					"patching_rect" : [ 310.000004470348358, 90.0, 57.0, 23.0 ],
					"text" : "route 1 0"
				}

			}
, 			{
				"box" : 				{
					"id" : "obj-7",
					"maxclass" : "message",
					"numinlets" : 2,
					"numoutlets" : 1,
					"outlettype" : [ "" ],
					"patching_rect" : [ 340.00000536441803, 190.000002980232239, 32.0, 23.0 ],
					"style" : "rnbodefault",
					"text" : "stop"
				}

			}
, 			{
				"box" : 				{
					"id" : "obj-8",
					"maxclass" : "message",
					"numinlets" : 2,
					"numoutlets" : 1,
					"outlettype" : [ "" ],
					"patching_rect" : [ 300.000004172325134, 190.000002980232239, 30.0, 23.0 ],
					"style" : "rnbodefault",
					"text" : "play"
				}

			}
, 			{
				"box" : 				{
					"id" : "obj-12",
					"maxclass" : "newobj",
					"numinlets" : 2,
					"numoutlets" : 0,
					"patching_rect" : [ 230.0, 440.0, 55.0, 23.0 ],
					"text" : "dac~ 1 2"
				}

			}
, 			{
				"box" : 				{
					"comment" : "",
					"id" : "obj-1",
					"index" : 1,
					"maxclass" : "inlet",
					"numinlets" : 0,
					"numoutlets" : 1,
					"outlettype" : [ "int" ],
					"patching_rect" : [ 310.000004470348358, 39.999998509883881, 30.0, 30.0 ]
				}

			}
 ],
		"lines" : [ 			{
				"patchline" : 				{
					"destination" : [ "obj-4", 0 ],
					"source" : [ "obj-1", 0 ]
				}

			}
, 			{
				"patchline" : 				{
					"destination" : [ "obj-11", 0 ],
					"source" : [ "obj-10", 1 ]
				}

			}
, 			{
				"patchline" : 				{
					"destination" : [ "obj-9", 0 ],
					"source" : [ "obj-10", 0 ]
				}

			}
, 			{
				"patchline" : 				{
					"destination" : [ "obj-3", 0 ],
					"source" : [ "obj-11", 0 ]
				}

			}
, 			{
				"patchline" : 				{
					"destination" : [ "obj-15", 0 ],
					"source" : [ "obj-13", 0 ]
				}

			}
, 			{
				"patchline" : 				{
					"destination" : [ "obj-6", 0 ],
					"source" : [ "obj-13", 1 ]
				}

			}
, 			{
				"patchline" : 				{
					"destination" : [ "obj-3", 0 ],
					"source" : [ "obj-14", 0 ]
				}

			}
, 			{
				"patchline" : 				{
					"destination" : [ "obj-3", 0 ],
					"source" : [ "obj-15", 0 ]
				}

			}
, 			{
				"patchline" : 				{
					"destination" : [ "obj-3", 0 ],
					"source" : [ "obj-18", 0 ]
				}

			}
, 			{
				"patchline" : 				{
					"destination" : [ "obj-13", 0 ],
					"source" : [ "obj-19", 0 ]
				}

			}
, 			{
				"patchline" : 				{
					"destination" : [ "obj-10", 0 ],
					"source" : [ "obj-2", 0 ]
				}

			}
, 			{
				"patchline" : 				{
					"destination" : [ "obj-5", 0 ],
					"source" : [ "obj-28", 0 ]
				}

			}
, 			{
				"patchline" : 				{
					"destination" : [ "obj-12", 1 ],
					"source" : [ "obj-3", 1 ]
				}

			}
, 			{
				"patchline" : 				{
					"destination" : [ "obj-12", 0 ],
					"source" : [ "obj-3", 0 ]
				}

			}
, 			{
				"patchline" : 				{
					"destination" : [ "obj-7", 0 ],
					"source" : [ "obj-4", 1 ]
				}

			}
, 			{
				"patchline" : 				{
					"destination" : [ "obj-8", 0 ],
					"source" : [ "obj-4", 0 ]
				}

			}
, 			{
				"patchline" : 				{
					"destination" : [ "obj-14", 0 ],
					"source" : [ "obj-5", 1 ]
				}

			}
, 			{
				"patchline" : 				{
					"destination" : [ "obj-18", 0 ],
					"source" : [ "obj-5", 0 ]
				}

			}
, 			{
				"patchline" : 				{
					"destination" : [ "obj-3", 0 ],
					"source" : [ "obj-6", 0 ]
				}

			}
, 			{
				"patchline" : 				{
					"destination" : [ "obj-3", 0 ],
					"source" : [ "obj-7", 0 ]
				}

			}
, 			{
				"patchline" : 				{
					"destination" : [ "obj-3", 0 ],
					"source" : [ "obj-8", 0 ]
				}

			}
, 			{
				"patchline" : 				{
					"destination" : [ "obj-3", 0 ],
					"source" : [ "obj-9", 0 ]
				}

			}
 ],
		"styles" : [ 			{
				"name" : "rnbodefault",
				"default" : 				{
					"accentcolor" : [ 0.343034118413925, 0.506230533123016, 0.86220508813858, 1.0 ],
					"bgcolor" : [ 0.031372549019608, 0.125490196078431, 0.211764705882353, 1.0 ],
					"bgfillcolor" : 					{
						"angle" : 270.0,
						"autogradient" : 0.0,
						"color" : [ 0.031372549019608, 0.125490196078431, 0.211764705882353, 1.0 ],
						"color1" : [ 0.031372549019608, 0.125490196078431, 0.211764705882353, 1.0 ],
						"color2" : [ 0.263682, 0.004541, 0.038797, 1.0 ],
						"proportion" : 0.39,
						"type" : "color"
					}
,
					"color" : [ 0.929412, 0.929412, 0.352941, 1.0 ],
					"elementcolor" : [ 0.357540726661682, 0.515565991401672, 0.861786782741547, 1.0 ],
					"fontname" : [ "Lato" ],
					"fontsize" : [ 12.0 ],
					"stripecolor" : [ 0.258338063955307, 0.352425158023834, 0.511919498443604, 1.0 ],
					"textcolor_inverse" : [ 0.968627, 0.968627, 0.968627, 1 ]
				}
,
				"parentstyle" : "",
				"multi" : 0
			}
, 			{
				"name" : "rnbolight",
				"default" : 				{
					"accentcolor" : [ 0.443137254901961, 0.505882352941176, 0.556862745098039, 1.0 ],
					"bgcolor" : [ 0.796078431372549, 0.862745098039216, 0.925490196078431, 1.0 ],
					"bgfillcolor" : 					{
						"angle" : 270.0,
						"autogradient" : 0.0,
						"color" : [ 0.835294117647059, 0.901960784313726, 0.964705882352941, 1.0 ],
						"color1" : [ 0.031372549019608, 0.125490196078431, 0.211764705882353, 1.0 ],
						"color2" : [ 0.263682, 0.004541, 0.038797, 1.0 ],
						"proportion" : 0.39,
						"type" : "color"
					}
,
					"clearcolor" : [ 0.898039, 0.898039, 0.898039, 1.0 ],
					"color" : [ 0.815686274509804, 0.509803921568627, 0.262745098039216, 1.0 ],
					"editing_bgcolor" : [ 0.898039, 0.898039, 0.898039, 1.0 ],
					"elementcolor" : [ 0.337254901960784, 0.384313725490196, 0.462745098039216, 1.0 ],
					"fontname" : [ "Lato" ],
					"locked_bgcolor" : [ 0.898039, 0.898039, 0.898039, 1.0 ],
					"stripecolor" : [ 0.309803921568627, 0.698039215686274, 0.764705882352941, 1.0 ],
					"textcolor_inverse" : [ 0.0, 0.0, 0.0, 1.0 ]
				}
,
				"parentstyle" : "",
				"multi" : 0
			}
, 			{
				"name" : "rnbomonokai",
				"default" : 				{
					"accentcolor" : [ 0.501960784313725, 0.501960784313725, 0.501960784313725, 1.0 ],
					"bgcolor" : [ 0.0, 0.0, 0.0, 1.0 ],
					"bgfillcolor" : 					{
						"angle" : 270.0,
						"autogradient" : 0.0,
						"color" : [ 0.0, 0.0, 0.0, 1.0 ],
						"color1" : [ 0.031372549019608, 0.125490196078431, 0.211764705882353, 1.0 ],
						"color2" : [ 0.263682, 0.004541, 0.038797, 1.0 ],
						"proportion" : 0.39,
						"type" : "color"
					}
,
					"clearcolor" : [ 0.976470588235294, 0.96078431372549, 0.917647058823529, 1.0 ],
					"color" : [ 0.611764705882353, 0.125490196078431, 0.776470588235294, 1.0 ],
					"editing_bgcolor" : [ 0.976470588235294, 0.96078431372549, 0.917647058823529, 1.0 ],
					"elementcolor" : [ 0.749019607843137, 0.83921568627451, 1.0, 1.0 ],
					"fontname" : [ "Lato" ],
					"locked_bgcolor" : [ 0.976470588235294, 0.96078431372549, 0.917647058823529, 1.0 ],
					"stripecolor" : [ 0.796078431372549, 0.207843137254902, 1.0, 1.0 ],
					"textcolor" : [ 0.129412, 0.129412, 0.129412, 1.0 ]
				}
,
				"parentstyle" : "",
				"multi" : 0
			}
 ],
		"bgcolor" : [ 0.031372549019608, 0.125490196078431, 0.211764705882353, 1.0 ],
		"bgfillcolor_type" : "color",
		"bgfillcolor_color1" : [ 0.376470588235294, 0.384313725490196, 0.4, 1.0 ],
		"bgfillcolor_color2" : [ 0.290196078431373, 0.309803921568627, 0.301960784313725, 1.0 ],
		"bgfillcolor_color" : [ 0.800000011920929, 0.400000005960464, 0.200000002980232, 0.819999992847443 ]
	}

}
